HIERARCHY
ROOT Hips
{
 OFFSET 0.000000 0.000000 0.000000
 CHANNELS 6 Xposition Yposition Zposition Yrotation Xrotation Zrotation
 JOINT Chest
 {
  OFFSET 0.000000 9.910571 -0.011835
  CHANNELS 3 Yrotation Xrotation Zrotation
  JOINT Chest2
  {
   OFFSET 0.000000 10.789473 0.021497
   CHANNELS 3 Yrotation Xrotation Zrotation
   JOINT Chest3
   {
    OFFSET 0.000000 9.748205 0.000000
    CHANNELS 3 Yrotation Xrotation Zrotation
    JOINT Chest4
    {
     OFFSET 0.000000 9.748205 0.000000
     CHANNELS 3 Yrotation Xrotation Zrotation
     JOINT Neck
     {
      OFFSET 0.000000 13.998479 0.000000
      CHANNELS 3 Yrotation Xrotation Zrotation
      JOINT Head
      {
       OFFSET 0.000000 9.082285 0.051121
       CHANNELS 3 Yrotation Xrotation Zrotation
       End Site
       {
        OFFSET 0.000000 17.246134 0.026702
       }
      }
     }
     JOINT RightCollar
     {
      OFFSET -3.284495 7.824262 0.000000
      CHANNELS 3 Yrotation Xrotation Zrotation
      JOINT RightShoulder
      {
       OFFSET -15.534540 0.000000 0.000000
       CHANNELS 3 Yrotation Xrotation Zrotation
       JOINT RightElbow
       {
        OFFSET 0.000000 -28.251216 0.000000
        CHANNELS 3 Yrotation Xrotation Zrotation
        JOINT RightWrist
        {
         OFFSET 0.000000 -23.418114 0.012537
         CHANNELS 3 Yrotation Xrotation Zrotation
         End Site
         {
          OFFSET 0.000000 -17.723959 0.000000
         }
        }
       }
      }
     }
     JOINT LeftCollar
     {
      OFFSET 3.284495 7.824262 0.000000
      CHANNELS 3 Yrotation Xrotation Zrotation
      JOINT LeftShoulder
      {
       OFFSET 15.534540 0.000000 0.000000
       CHANNELS 3 Yrotation Xrotation Zrotation
       JOINT LeftElbow
       {
        OFFSET 0.000000 -28.251216 0.000000
        CHANNELS 3 Yrotation Xrotation Zrotation
        JOINT LeftWrist
        {
         OFFSET 0.000000 -23.418114 0.012537
         CHANNELS 3 Yrotation Xrotation Zrotation
         End Site
         {
          OFFSET 0.000000 -17.723959 0.000000
         }
        }
       }
      }
     }
    }
   }
  }
 }
 JOINT RightHip
 {
  OFFSET -8.142657 0.057990 0.005917
  CHANNELS 3 Yrotation Xrotation Zrotation
  JOINT RightKnee
  {
   OFFSET 0.000000 -49.716894 0.008478
   CHANNELS 3 Yrotation Xrotation Zrotation
   JOINT RightAnkle
   {
    OFFSET 0.000000 -43.994153 0.004166
    CHANNELS 3 Yrotation Xrotation Zrotation
    JOINT RightToe
    {
     OFFSET 0.000000 -7.619154 17.822051
     CHANNELS 3 Yrotation Xrotation Zrotation
     End Site
     {
      OFFSET 0.000000 -1.595627 7.159905
     }
    }
   }
  }
 }
 JOINT LeftHip
 {
  OFFSET 8.142657 0.057990 0.005917
  CHANNELS 3 Yrotation Xrotation Zrotation
  JOINT LeftKnee
  {
   OFFSET 0.000000 -49.716894 0.008478
   CHANNELS 3 Yrotation Xrotation Zrotation
   JOINT LeftAnkle
   {
    OFFSET 0.000000 -43.994153 0.004166
    CHANNELS 3 Yrotation Xrotation Zrotation
    JOINT LeftToe
    {
     OFFSET 0.000000 -7.619154 17.822051
     CHANNELS 3 Yrotation Xrotation Zrotation
     End Site
     {
      OFFSET 0.000000 -1.595627 7.159905
     }
    }
   }
  }
 }
}
MOTION
Frames: 11
Frame Time: 0.008333
469.450209 103.194539 406.288236 -53.583816 -10.483940 -1.432348 0.049776 11.388737 -1.529946 0.085037 5.066047 -0.631627 0.085037 5.066047 -0.631627 0.068984 3.799452 -0.474118 -2.992087 15.353760 1.214132 -6.044525 -7.547642 3.384190 -1.965975 2.631509 7.147305 0.617201 -6.999643 -13.848974 28.284519 -21.355276 -0.032494 12.382748 -10.783609 -13.128442 0.735263 0.002240 -9.422140 0.592577 -4.257328 15.686211 -8.484742 -24.325336 -7.108654 -24.280823 0.350880 15.811297 -6.131645 0.325219 -1.713038 -3.259664 28.751118 -7.348838 -2.751397 -12.383118 2.978600 0.120186 -0.576249 1.346463 13.276482 11.500853 8.836554 1.474960 0.330086 -5.072798 7.295157 -1.178934 -0.862145 -0.208321 0.236610 0.034198
469.634985 103.180373 406.100062 -53.482888 -10.444379 -1.321161 0.105055 11.519285 -1.531026 0.093344 5.118105 -0.634056 0.093344 5.118105 -0.634056 0.075284 3.838487 -0.476009 -3.115702 15.339137 1.245285 -6.287773 -7.565552 3.489065 -1.951643 2.689497 7.083345 0.562467 -6.961472 -13.848773 28.402303 -21.681478 0.087332 12.256270 -10.885468 -13.119830 0.594310 0.020854 -9.457895 0.539746 -4.414606 15.566905 -8.786269 -24.459853 -7.003218 -24.300153 0.376119 15.795208 -6.113961 0.468013 -1.908682 -3.133784 28.578191 -7.245209 -2.792870 -12.398165 2.879503 0.112616 -0.438164 1.198162 13.202110 11.289410 8.660501 1.382329 0.398075 -4.984556 7.271861 -1.094418 -0.896959 -0.196564 0.253223 0.024315
469.822928 103.165235 405.921973 -53.375730 -10.378258 -1.203339 0.164948 11.641900 -1.534101 0.104736 5.167116 -0.634617 0.104736 5.167116 -0.634617 0.083877 3.875233 -0.476527 -3.243590 15.323838 1.277606 -6.539512 -7.584042 3.597777 -1.936948 2.749374 7.015890 0.554057 -6.933122 -13.846749 28.477081 -21.982474 0.202598 12.155896 -10.997704 -13.162941 0.449815 0.024053 -9.508165 0.485641 -4.574494 15.441007 -9.055273 -24.615073 -6.868731 -24.345165 0.447405 15.787902 -6.034093 0.597892 -2.139192 -3.074747 28.323864 -7.084764 -2.822857 -12.392740 2.840254 0.090412 -0.287931 1.008287 13.147013 11.058496 8.474627 1.281034 0.456143 -4.902183 7.213324 -1.004218 -0.921119 -0.182236 0.267141 0.014999
470.013996 103.147978 405.744357 -53.287702 -10.276372 -1.080061 0.237320 11.751227 -1.527788 0.121402 5.215275 -0.634446 0.121402 5.215275 -0.634446 0.096416 3.911335 -0.476544 -3.370228 15.304614 1.312192 -6.790030 -7.609373 3.710548 -1.909723 2.803773 6.954817 0.584129 -6.916811 -13.839734 28.534531 -22.248207 0.279970 12.071760 -11.128359 -13.241981 0.334793 0.008755 -9.556514 0.400770 -4.742360 15.302975 -9.309172 -24.710625 -6.733638 -24.421293 0.489169 15.863628 -5.931557 0.696003 -2.384308 -2.989067 27.990051 -6.878149 -2.813392 -12.415648 2.949688 0.072832 -0.091058 0.710053 13.129197 10.795900 8.284993 1.160088 0.503647 -4.817312 7.108506 -0.904860 -0.953900 -0.157790 0.277567 0.012848
470.193765 103.131161 405.571645 -53.168618 -10.171745 -0.949021 0.285487 11.880105 -1.528626 0.138837 5.259196 -0.632127 0.138837 5.259196 -0.632127 0.109508 3.944259 -0.474959 -3.496978 15.283999 1.346838 -7.040918 -7.636909 3.823617 -1.884950 2.860332 6.897575 0.654344 -6.898952 -13.832733 28.594162 -22.496505 0.315428 11.968590 -11.259327 -13.335872 0.209874 -0.008980 -9.614940 0.332803 -4.914717 15.150246 -9.551872 -24.852067 -6.560416 -24.522175 0.555318 15.956294 -5.917968 0.794131 -2.640178 -2.885466 27.620324 -6.672627 -2.781612 -12.515245 3.288904 0.052294 0.140501 0.274193 13.081943 10.528718 8.085404 1.029171 0.558606 -4.749313 7.165623 -0.803356 -0.982382 -0.120199 0.283238 0.018812
470.372030 103.113007 405.398125 -53.030648 -10.041936 -0.808283 0.323892 11.997503 -1.519615 0.154215 5.298697 -0.634167 0.154215 5.298697 -0.634167 0.121091 3.973868 -0.476626 -3.621860 15.262739 1.382368 -7.288745 -7.665336 3.937743 -1.837932 2.929634 6.847189 0.744709 -6.895786 -13.825096 28.640719 -22.707979 0.318811 11.859401 -11.393445 -13.434593 0.094217 -0.027139 -9.652163 0.249510 -5.092123 14.984424 -9.793940 -24.952619 -6.401943 -24.644168 0.591765 16.136961 -6.019340 0.860078 -2.892545 -2.829378 27.193211 -6.488861 -2.627873 -12.673448 3.696982 0.062776 0.399739 -0.173246 13.016290 10.238434 7.869852 0.891865 0.612642 -4.683374 7.186430 -0.695274 -1.002817 -0.090903 0.284958 0.020029
470.547349 103.095273 405.228291 -52.862417 -9.892472 -0.662076 0.353458 12.109814 -1.504089 0.168635 5.333363 -0.637913 0.168635 5.333363 -0.637913 0.131966 3.999852 -0.479564 -3.751253 15.238536 1.417401 -7.545068 -7.698577 4.052885 -1.823966 3.002609 6.811650 0.872144 -6.905964 -13.819746 28.712478 -22.888739 0.298183 11.747115 -11.520224 -13.540137 -0.024920 -0.029094 -9.707789 0.156052 -5.274606 14.823159 -10.067333 -25.128298 -6.206507 -24.725380 0.661931 16.315167 -6.247146 0.909398 -3.165501 -2.941924 26.703326 -6.347829 -2.271166 -12.868396 4.149504 0.066040 0.660482 -0.606877 12.911875 9.935407 7.639433 0.765728 0.662738 -4.612347 7.143387 -0.576346 -1.034479 -0.056422 0.278475 0.028196
470.726615 103.077071 405.059362 -52.682605 -9.708763 -0.481555 0.380352 12.193220 -1.497961 0.176079 5.366278 -0.649033 0.176079 5.366278 -0.649033 0.137677 4.024528 -0.487969 -3.879213 15.212019 1.451192 -7.798481 -7.735933 4.165423 -1.795095 3.081153 6.789757 1.006048 -6.928454 -13.805785 28.791725 -23.046490 0.243999 11.658699 -11.627334 -13.634017 -0.133365 -0.025045 -9.737528 0.060431 -5.460906 14.651008 -10.392841 -25.271305 -6.008997 -24.765863 0.686836 16.561629 -6.534913 0.888586 -3.458377 -3.202436 26.212697 -6.239732 -1.774815 -13.071858 4.563431 0.064410 0.888631 -0.963108 12.770855 9.606959 7.355814 0.672711 0.712567 -4.531328 7.050442 -0.441015 -1.059681 -0.032113 0.260316 0.029295
470.904182 103.058223 404.885874 -52.486084 -9.490228 -0.283339 0.406624 12.262102 -1.498488 0.181909 5.394722 -0.659060 0.181909 5.394722 -0.659060 0.142164 4.045852 -0.495539 -4.011386 15.182135 1.480136 -8.058276 -7.779245 4.270815 -1.788374 3.158441 6.766138 1.167703 -6.956575 -13.792306 28.824658 -23.209582 0.209413 11.611206 -11.688910 -13.720583 -0.248908 -0.008679 -9.788764 -0.063657 -5.653400 14.497558 -10.714983 -25.491917 -5.776243 -24.816783 0.741247 16.747408 -6.844815 0.799702 -3.776298 -3.575089 25.758684 -6.107192 -1.274903 -13.276510 4.902344 0.031054 1.074189 -1.216068 12.590226 9.244435 7.042709 0.600303 0.766267 -4.455965 7.011768 -0.297247 -1.070758 -0.007677 0.238657 0.023975
471.088293 103.034952 404.697646 -52.299817 -9.212033 -0.069954 0.442941 12.299718 -1.499750 0.188860 5.415994 -0.669850 0.188860 5.415994 -0.669850 0.147491 4.061795 -0.503691 -4.140574 15.147042 1.503997 -8.311062 -7.832505 4.366123 -1.787219 3.238558 6.753127 1.356528 -6.998100 -13.784693 28.821225 -23.345452 0.169200 11.593859 -11.732393 -13.772685 -0.358883 0.012591 -9.824797 -0.223376 -5.849909 14.368742 -11.060164 -25.686930 -5.574203 -24.867683 0.740967 16.980429 -7.111767 0.576408 -4.090043 -4.015759 25.418585 -5.931886 -0.869858 -13.490495 5.081405 0.015374 1.212467 -1.317948 12.391842 8.813737 6.700650 0.554359 0.833623 -4.373717 6.938587 -0.150606 -1.082038 0.010041 0.218852 0.015616
471.265649 103.009632 404.491632 -52.103792 -8.892124 0.128361 0.490246 12.331972 -1.485224 0.195970 5.431851 -0.676450 0.195970 5.431851 -0.676450 0.152896 4.073678 -0.508703 -4.277189 15.104561 1.519762 -8.575364 -7.899251 4.449802 -1.790188 3.303287 6.748290 1.571951 -7.053429 -13.793397 28.773610 -23.468879 0.132986 11.576852 -11.744556 -13.778944 -0.474672 0.035200 -9.878236 -0.436177 -6.046194 14.261363 -11.399319 -25.957040 -5.345531 -24.940065 0.763918 17.181627 -7.326119 0.240520 -4.329935 -4.394349 25.212461 -5.710787 -0.641251 -13.704278 5.044063 0.036543 1.292720 -1.251015 12.186618 8.323917 6.370628 0.526531 0.917274 -4.296453 6.932786 -0.010351 -1.094362 0.023867 0.208491 0.009734
